<svg width="24" height="20" viewBox="0 0 24 20" fill="none" xmlns="http://www.w3.org/2000/svg">
<path fill-rule="evenodd" clip-rule="evenodd" d="M12 0C13.026 0 14.0784 0.0264001 15.0984 0.0696001L16.3032 0.1272L17.4564 0.1956L18.5364 0.2688L19.5228 0.3456C20.5934 0.42707 21.601 0.883721 22.3679 1.63512C23.1349 2.38652 23.6122 3.38447 23.7156 4.4532L23.7636 4.9632L23.8536 6.0552C23.9376 7.1868 24 8.4204 24 9.6C24 10.7796 23.9376 12.0132 23.8536 13.1448L23.7636 14.2368L23.7156 14.7468C23.6121 15.8157 23.1347 16.8138 22.3675 17.5652C21.6003 18.3167 20.5924 18.7732 19.5216 18.8544L18.5376 18.93L17.4576 19.0044L16.3032 19.0728L15.0984 19.1304C14.0662 19.1751 13.0332 19.1983 12 19.2C10.9668 19.1983 9.93381 19.1751 8.9016 19.1304L7.6968 19.0728L6.5436 19.0044L5.4636 18.93L4.4772 18.8544C3.40658 18.7729 2.39904 18.3163 1.63205 17.5649C0.865066 16.8135 0.387829 15.8155 0.2844 14.7468L0.2364 14.2368L0.1464 13.1448C0.0549993 11.9653 0.00616757 10.783 0 9.6C0 8.4204 0.0624 7.1868 0.1464 6.0552L0.2364 4.9632L0.2844 4.4532C0.387789 3.38466 0.864854 2.38686 1.6316 1.63549C2.39834 0.88411 3.40559 0.42734 4.476 0.3456L5.4612 0.2688L6.5412 0.1956L7.6956 0.1272L8.9004 0.0696001C9.933 0.0248726 10.9664 0.0016675 12 0ZM9.6 6.69V12.51C9.6 13.0644 10.2 13.41 10.68 13.134L15.72 10.224C15.8297 10.1609 15.9208 10.07 15.9841 9.9604C16.0475 9.85085 16.0808 9.72654 16.0808 9.6C16.0808 9.47346 16.0475 9.34915 15.9841 9.2396C15.9208 9.13005 15.8297 9.03913 15.72 8.976L10.68 6.0672C10.5705 6.00399 10.4463 5.97072 10.3199 5.97074C10.1935 5.97076 10.0693 6.00407 9.9598 6.06732C9.85033 6.13056 9.75945 6.22152 9.69629 6.33104C9.63313 6.44056 9.59992 6.56477 9.6 6.6912V6.69Z" fill="white"/>
</svg>
